HIERARCHY
ROOT hip
{
  OFFSET 0 0 0
  CHANNELS 6 Xposition Yposition Zposition Zrotation Yrotation Xrotation
  JOINT abdomen
  {
    OFFSET 0 20.6881 -0.73152
    CHANNELS 3 Zrotation Xrotation Yrotation
    JOINT chest
    {
      OFFSET 0 11.7043 -0.48768
      CHANNELS 3 Zrotation Xrotation Yrotation
      JOINT neck
      {
        OFFSET 0 22.1894 -2.19456
        CHANNELS 3 Zrotation Xrotation Yrotation
        JOINT head
        {
          OFFSET -0.24384 7.07133 1.2192
          CHANNELS 3 Zrotation Xrotation Yrotation
          JOINT leftEye
          {
            OFFSET 4.14528 8.04674 8.04672
            CHANNELS 3 Zrotation Xrotation Yrotation
            End Site
            {
              OFFSET 1 0 0
            }
          }
          JOINT rightEye
          {
            OFFSET -3.6576 8.04674 8.04672
            CHANNELS 3 Zrotation Xrotation Yrotation
            End Site
            {
              OFFSET 1 0 0
            }
          }
        }
      }
      JOINT rCollar
      {
        OFFSET -2.68224 19.2634 -4.8768
        CHANNELS 3 Zrotation Xrotation Yrotation
        JOINT rShldr
        {
          OFFSET -8.77824 -1.95073 1.46304
          CHANNELS 3 Zrotation Xrotation Yrotation
          JOINT rForeArm
          {
            OFFSET -28.1742 -1.7115 0.48768
            CHANNELS 3 Zrotation Xrotation Yrotation
            JOINT rHand
            {
              OFFSET -22.5879 0.773209 7.07136
              CHANNELS 3 Zrotation Xrotation Yrotation
              JOINT rThumb1
              {
                OFFSET -1.2192 -0.487915 3.41376
                CHANNELS 3 Zrotation Xrotation Yrotation
                JOINT rThumb2
                {
                  OFFSET -3.37035 -0.52449 3.41376
                  CHANNELS 3 Zrotation Xrotation Yrotation
                  End Site
                  {
                    OFFSET -1.78271 -1.18214 1.43049
                  }
                }
              }
              JOINT rIndex1
              {
                OFFSET -7.75947 0.938293 5.60832
                CHANNELS 3 Zrotation Xrotation Yrotation
                JOINT rIndex2
                {
                  OFFSET -2.54057 -0.884171 1.56538
                  CHANNELS 3 Zrotation Xrotation Yrotation
                  End Site
                  {
                    OFFSET -1.62519 -0.234802 1.16502
                  }
                }
              }
              JOINT rMid1
              {
                OFFSET -8.24714 1.18213 3.41376
                CHANNELS 3 Zrotation Xrotation Yrotation
                JOINT rMid2
                {
                  OFFSET -3.10165 -0.590103 1.0647
                  CHANNELS 3 Zrotation Xrotation Yrotation
                  End Site
                  {
                    OFFSET -2.48547 -0.328903 0.83742
                  }
                }
              }
              JOINT rRing1
              {
                OFFSET -8.82822 0.546677 1.51678
                CHANNELS 3 Zrotation Xrotation Yrotation
                JOINT rRing2
                {
                  OFFSET -2.60934 -0.819778 -0.0198488
                  CHANNELS 3 Zrotation Xrotation Yrotation
                  End Site
                  {
                    OFFSET -2.33842 -0.294052 0.168128
                  }
                }
              }
              JOINT rPinky1
              {
                OFFSET -8.27202 -0.0477905 -0.4584
                CHANNELS 3 Zrotation Xrotation Yrotation
                JOINT rPinky2
                {
                  OFFSET -1.82734 -0.647385 -0.700984
                  CHANNELS 3 Zrotation Xrotation Yrotation
                  End Site
                  {
                    OFFSET -1.69225 -0.51767 -0.607171
                  }
                }
              }
            }
          }
        }
      }
      JOINT lCollar
      {
        OFFSET 2.68224 19.2634 -4.8768
        CHANNELS 3 Zrotation Xrotation Yrotation
        JOINT lShldr
        {
          OFFSET 8.77824 -1.95073 1.46304
          CHANNELS 3 Zrotation Xrotation Yrotation
          JOINT lForeArm
          {
            OFFSET 28.1742 -1.7115 0.48768
            CHANNELS 3 Zrotation Xrotation Yrotation
            JOINT lHand
            {
              OFFSET 22.5879 0.773209 7.07136
              CHANNELS 3 Zrotation Xrotation Yrotation
              JOINT lThumb1
              {
                OFFSET 1.2192 -0.487915 3.41376
                CHANNELS 3 Zrotation Xrotation Yrotation
                JOINT lThumb2
                {
                  OFFSET 3.37035 -0.52449 3.41376
                  CHANNELS 3 Zrotation Xrotation Yrotation
                  End Site
                  {
                    OFFSET 1.78271 -1.18214 1.43049
                  }
                }
              }
              JOINT lIndex1
              {
                OFFSET 7.75947 0.938293 5.60832
                CHANNELS 3 Zrotation Xrotation Yrotation
                JOINT lIndex2
                {
                  OFFSET 2.54057 -0.884171 1.56538
                  CHANNELS 3 Zrotation Xrotation Yrotation
                  End Site
                  {
                    OFFSET 1.62519 -0.234802 1.16502
                  }
                }
              }
              JOINT lMid1
              {
                OFFSET 8.24714 1.18213 3.41376
                CHANNELS 3 Zrotation Xrotation Yrotation
                JOINT lMid2
                {
                  OFFSET 3.10165 -0.590103 1.0647
                  CHANNELS 3 Zrotation Xrotation Yrotation
                  End Site
                  {
                    OFFSET 2.48547 -0.328903 0.83742
                  }
                }
              }
              JOINT lRing1
              {
                OFFSET 8.82822 0.546677 1.51678
                CHANNELS 3 Zrotation Xrotation Yrotation
                JOINT lRing2
                {
                  OFFSET 2.60934 -0.819778 -0.0198488
                  CHANNELS 3 Zrotation Xrotation Yrotation
                  End Site
                  {
                    OFFSET 2.33842 -0.294052 0.168128
                  }
                }
              }
              JOINT lPinky1
              {
                OFFSET 8.27202 -0.0477905 -0.4584
                CHANNELS 3 Zrotation Xrotation Yrotation
                JOINT lPinky2
                {
                  OFFSET 1.82734 -0.647385 -0.700984
                  CHANNELS 3 Zrotation Xrotation Yrotation
                  End Site
                  {
                    OFFSET 1.69225 -0.51767 -0.607171
                  }
                }
              }
            }
          }
        }
      }
    }
  }
  JOINT rButtock
  {
    OFFSET -8.77824 4.35084 1.2192
    CHANNELS 3 Zrotation Xrotation Yrotation
    JOINT rThigh
    {
      OFFSET 0 -1.70687 -2.19456
      CHANNELS 3 Zrotation Xrotation Yrotation
      JOINT rShin
      {
        OFFSET 0 -36.8199 0.73152
        CHANNELS 3 Zrotation Xrotation Yrotation
        JOINT rFoot
        {
          OFFSET 0.73152 -45.1104 -5.12064
          CHANNELS 3 Zrotation Xrotation Yrotation
          End Site
          {
            OFFSET -1.1221 -3.69964 12.103
          }
        }
      }
    }
  }
  JOINT lButtock
  {
    OFFSET 8.77824 4.35084 1.2192
    CHANNELS 3 Zrotation Xrotation Yrotation
    JOINT lThigh
    {
      OFFSET 0 -1.70687 -2.19456
      CHANNELS 3 Zrotation Xrotation Yrotation
      JOINT lShin
      {
        OFFSET 0 -36.8199 0.73152
        CHANNELS 3 Zrotation Xrotation Yrotation
        JOINT lFoot
        {
          OFFSET -0.73152 -45.1104 -5.12064
          CHANNELS 3 Zrotation Xrotation Yrotation
          End Site
          {
            OFFSET 1.1221 -3.69964 12.103
          }
        }
      }
    }
  }
}
MOTION
Frames:	8
Frame Time:	0.00833333
-81.5676 102.166 -6.78656 -22.3613 14.8297 165.44 0.0416922 7.2926 8.25331 -4.06608 -7.15597 1.77271 6.3955 13.2208 9.85442 24.6592 -12.1666 20.1483 -0.0 0.0 0.0 -0.0 0.0 0.0 1.7175e-13 2.05468e-13 -5.31205e-14 -4.25844 -62.099 45.9784 -22.845 -17.0808 46.1398 -0.904606 -25.9581 -3.92321 1.12228e-09 5.45685e-10 -1.06302e-09 1.95989e-09 9.33798e-10 -1.81535e-09 1.12229e-09 5.45687e-10 -1.06303e-09 7.73091 5.47488 0.417314 1.12228e-09 5.45686e-10 -1.06302e-09 2.90554 0.965183 0.102902 1.12229e-09 5.45686e-10 -1.06302e-09 10.2786 0.731801 0.0259123 1.12228e-09 5.45688e-10 -1.06301e-09 2.22167 -0.733487 -0.20892 1.71583e-13 2.05444e-13 -5.33512e-14 -62.8313 -59.4649 -88.5908 26.8293 -25.7842 -60.5368 0.181145 12.0405 -1.71778 -1.28913e-09 -4.95703e-10 1.47524e-10 -2.22476e-09 -8.4142e-10 2.66583e-10 -1.28913e-09 -4.95699e-10 1.47527e-10 -7.73091 5.47488 -0.417314 -1.28913e-09 -4.95701e-10 1.47521e-10 -2.90554 0.965183 -0.102902 -1.28914e-09 -4.95703e-10 1.47521e-10 -10.2786 0.731801 -0.0259123 -1.28912e-09 -4.95703e-10 1.47517e-10 -2.22167 -0.733487 0.20892 -2.03217e-16 0.0 -3.88251e-19 -31.8388 -13.4122 -9.74784 0.158575 13.5969 1.54729 -3.38318 -37.5777 -11.3363 2.03217e-16 0.0 3.88251e-19 126.027 -26.6051 121.023 177.055 51.9228 -177.096 25.345 64.2967 -29.2808
-81.7545 102.078 -7.29098 -21.9511 14.3188 164.903 0.032102 8.21986 8.06486 -4.13826 -7.30937 1.67411 6.24831 13.2881 9.83194 24.8317 -13.2061 20.4969 -0.0 0.0 0.0 -0.0 0.0 0.0 2.63155e-14 1.60624e-13 -1.46156e-13 -4.26203 -62.5024 45.9403 -22.8144 -17.031 46.0515 -0.895278 -25.8359 -3.90193 7.05094e-10 1.49548e-09 -1.82442e-09 1.25857e-09 2.58189e-09 -3.14372e-09 7.05098e-10 1.49549e-09 -1.82444e-09 7.73091 5.47488 0.417314 7.05094e-10 1.49548e-09 -1.82443e-09 2.90554 0.965183 0.102902 7.051e-10 1.49548e-09 -1.82443e-09 10.2786 0.731801 0.0259123 7.0509e-10 1.49549e-09 -1.82442e-09 2.22167 -0.733487 -0.20892 2.61655e-14 1.60611e-13 -1.46405e-13 -62.8944 -59.4433 -88.7348 26.8236 -25.7661 -60.5074 0.17286 11.766 -1.67749 -4.07827e-10 -2.0398e-09 -1.10971e-09 -7.14623e-10 -3.52319e-09 -1.91413e-09 -4.07825e-10 -2.0398e-09 -1.10971e-09 -7.73091 5.47488 -0.417314 -4.07823e-10 -2.0398e-09 -1.10971e-09 -2.90554 0.965183 -0.102902 -4.07831e-10 -2.0398e-09 -1.10971e-09 -10.2786 0.731801 -0.0259123 -4.07818e-10 -2.0398e-09 -1.10971e-09 -2.22167 -0.733487 0.20892 -2.03217e-16 0.0 -3.88251e-19 -31.3824 -12.9466 -9.94538 0.169605 13.3179 1.63248 -3.73679 -37.2354 -11.7921 2.03217e-16 0.0 3.88251e-19 127.041 -26.7822 122.815 177.057 51.9152 -177.095 26.7521 61.3866 -31.9902
-81.9714 101.712 -7.55589 -21.4812 13.8119 164.339 -0.100005 9.19533 7.81169 -4.33309 -7.37835 1.56112 6.08759 13.4299 9.78461 24.9612 -14.5583 20.9131 -0.0 0.0 0.0 -0.0 0.0 0.0 -1.07333e-14 1.46368e-13 -2.21572e-13 -4.24844 -62.9233 45.9027 -22.7739 -16.965 45.9362 -0.884747 -25.6965 -3.87772 7.19041e-10 1.78635e-09 -2.10438e-09 1.28948e-09 3.08426e-09 -3.62819e-09 7.19045e-10 1.78635e-09 -2.10439e-09 7.73091 5.47488 0.417314 7.19041e-10 1.78635e-09 -2.10439e-09 2.90554 0.965183 0.102902 7.19048e-10 1.78635e-09 -2.10438e-09 10.2786 0.731801 0.0259123 7.19038e-10 1.78635e-09 -2.10438e-09 2.22167 -0.733487 -0.20892 -1.08604e-14 1.46366e-13 -2.21805e-13 -62.9762 -59.3878 -88.9539 26.8089 -25.7198 -60.4333 0.16536 11.5103 -1.64002 -2.54648e-10 -2.52065e-09 -1.33862e-09 -4.53018e-10 -4.35792e-09 -2.31137e-09 -2.54648e-10 -2.52065e-09 -1.33862e-09 -7.73091 5.47488 -0.417314 -2.54645e-10 -2.52065e-09 -1.33862e-09 -2.90554 0.965183 -0.102902 -2.54654e-10 -2.52065e-09 -1.33862e-09 -10.2786 0.731801 -0.0259123 -2.5464e-10 -2.52065e-09 -1.33862e-09 -2.22167 -0.733487 0.20892 -2.03217e-16 0.0 -3.88251e-19 -30.215 -12.4132 -10.1575 0.175455 12.8161 1.67987 -5.22676 -35.0568 -14.6073 2.03217e-16 0.0 3.88251e-19 128.513 -27.2604 125.014 177.06 52.0155 -177.103 26.6521 53.5345 -35.6107
-82.2216 101.312 -7.59032 -20.9758 13.32 163.762 -0.315074 10.2252 7.50571 -4.61299 -7.39457 1.43517 5.91304 13.6273 9.71787 25.0857 -16.1575 21.3998 -0.0 0.0 0.0 -0.0 0.0 0.0 1.09081e-14 1.47988e-13 -2.86772e-13 -4.19123 -63.3708 45.8948 -22.7241 -16.884 45.7962 -0.872559 -25.533 -3.84941 9.9128e-10 1.69269e-09 -2.10922e-09 1.75939e-09 2.91796e-09 -3.63017e-09 9.91283e-10 1.6927e-09 -2.10922e-09 7.73091 5.47488 0.417314 9.91279e-10 1.69269e-09 -2.10922e-09 2.90554 0.965183 0.102902 9.91286e-10 1.6927e-09 -2.10921e-09 10.2786 0.731801 0.0259123 9.91276e-10 1.6927e-09 -2.10921e-09 2.22167 -0.733487 -0.20892 1.08097e-14 1.48001e-13 -2.86971e-13 -63.0586 -59.3102 -89.2166 26.7878 -25.6537 -60.3286 0.15811 11.2551 -1.6027 -5.35088e-10 -2.38746e-09 -9.67306e-10 -9.35102e-10 -4.12586e-09 -1.66749e-09 -5.3509e-10 -2.38746e-09 -9.67302e-10 -7.73091 5.47488 -0.417314 -5.35085e-10 -2.38746e-09 -9.67305e-10 -2.90554 0.965183 -0.102902 -5.35094e-10 -2.38746e-09 -9.67307e-10 -10.2786 0.731801 -0.0259123 -5.3508e-10 -2.38746e-09 -9.6731e-10 -2.22167 -0.733487 0.20892 -2.03217e-16 0.0 -3.88251e-19 -28.5209 -11.7645 -10.3783 0.178462 12.1454 1.70563 -7.04736 -31.5303 -18.8424 2.03217e-16 0.0 3.88251e-19 130.36 -27.889 127.59 177.065 52.1767 -177.118 24.0517 42.443 -39.6392
-82.4656 100.928 -7.42152 -20.4606 12.8476 163.18 -0.549538 11.2517 7.17853 -4.91928 -7.4044 1.30857 5.68852 13.8577 9.61679 25.279 -17.9982 21.9299 -0.0 0.0 0.0 -0.0 0.0 0.0 3.01537e-14 1.43199e-13 -3.05928e-13 -4.05079 -63.8038 45.9622 -22.661 -16.7824 45.6182 -0.858401 -25.3418 -3.8164 1.25538e-09 1.34525e-09 -1.89686e-09 2.2099e-09 2.31266e-09 -3.2563e-09 1.25538e-09 1.34525e-09 -1.89686e-09 7.73091 5.47488 0.417314 1.25538e-09 1.34525e-09 -1.89686e-09 2.90554 0.965183 0.102902 1.25538e-09 1.34525e-09 -1.89685e-09 10.2786 0.731801 0.0259123 1.25537e-09 1.34525e-09 -1.89685e-09 2.22167 -0.733487 -0.20892 3.00799e-14 1.43224e-13 -3.06093e-13 -62.9807 -59.2243 -89.3607 26.7612 -25.571 -60.197 0.150243 10.9752 -1.56184 -9.19047e-10 -1.93693e-09 -4.57678e-10 -1.59428e-09 -3.34287e-09 -7.83391e-10 -9.19052e-10 -1.93692e-09 -4.5767e-10 -7.73091 5.47488 -0.417314 -9.19045e-10 -1.93692e-09 -4.57674e-10 -2.90554 0.965183 -0.102902 -9.19055e-10 -1.93692e-09 -4.57679e-10 -10.2786 0.731801 -0.0259123 -9.1904e-10 -1.93692e-09 -4.57681e-10 -2.22167 -0.733487 0.20892 -2.03217e-16 0.0 -3.88251e-19 -26.6849 -10.9466 -10.5889 0.180045 11.3431 1.70345 -8.23265 -27.8596 -22.6535 2.03217e-16 0.0 3.88251e-19 132.358 -28.5038 130.269 177.07 52.4315 -177.158 18.7933 31.3805 -42.7377
-82.6718 100.646 -7.17786 -19.9441 12.3979 162.597 -0.743373 12.2167 6.86184 -5.19366 -7.45424 1.19356 5.3781 14.0983 9.46634 25.6123 -20.0765 22.4777 -0.0 0.0 0.0 -0.0 0.0 0.0 -1.40826e-14 1.09713e-13 -2.43213e-13 -3.78522 -64.1807 46.1519 -22.5806 -16.6546 45.389 -0.841995 -25.1193 -3.77807 1.24491e-09 8.74732e-10 -1.52524e-09 2.18262e-09 1.49804e-09 -2.61325e-09 1.24491e-09 8.74734e-10 -1.52524e-09 7.73091 5.47488 0.417314 1.24491e-09 8.74735e-10 -1.52524e-09 2.90554 0.965183 0.102902 1.24491e-09 8.74735e-10 -1.52524e-09 10.2786 0.731801 0.0259123 1.2449e-09 8.74737e-10 -1.52524e-09 2.22167 -0.733487 -0.20892 -1.41459e-14 1.09745e-13 -2.43362e-13 -62.5833 -59.1442 -89.2265 26.7299 -25.4746 -60.0417 0.141043 10.6455 -1.51377 -1.07643e-09 -1.46572e-09 -2.71642e-10 -1.86395e-09 -2.52483e-09 -4.59948e-10 -1.07644e-09 -1.46572e-09 -2.71632e-10 -7.73091 5.47488 -0.417314 -1.07643e-09 -1.46572e-09 -2.71635e-10 -2.90554 0.965183 -0.102902 -1.07644e-09 -1.46572e-09 -2.71642e-10 -10.2786 0.731801 -0.0259123 -1.07642e-09 -1.46571e-09 -2.71645e-10 -2.22167 -0.733487 0.20892 -2.03217e-16 0.0 -3.88251e-19 -25.0919 -9.90543 -10.7712 0.180871 10.4462 1.66707 -8.56128 -25.2895 -24.5333 2.03217e-16 0.0 3.88251e-19 134.259 -28.9747 132.747 177.072 52.8126 -177.237 12.4918 22.9169 -43.5723
-82.853 100.496 -7.00995 -19.4239 11.972 162.008 -0.921948 13.1071 6.54182 -5.44848 -7.55506 1.09049 4.91685 14.403 9.26136 26.1976 -22.4897 23.1233 -0.0 0.0 0.0 -0.0 0.0 0.0 -1.96726e-13 5.12864e-15 -2.63063e-14 -3.37222 -64.4688 46.4672 -22.4808 -16.4967 45.1083 -0.823875 -24.8693 -3.7352 6.25562e-10 1.38309e-10 -7.9441e-10 1.09576e-09 2.30827e-10 -1.36204e-09 6.25564e-10 1.3831e-10 -7.94417e-10 7.73091 5.47488 0.417314 6.25562e-10 1.3831e-10 -7.94413e-10 2.90554 0.965183 0.102902 6.25568e-10 1.3831e-10 -7.94411e-10 10.2786 0.731801 0.0259123 6.25557e-10 1.38312e-10 -7.94404e-10 2.22167 -0.733487 -0.20892 -1.968e-13 5.15802e-15 -2.64698e-14 -61.7719 -59.0637 -88.7316 26.694 -25.3648 -59.8659 0.130802 10.2608 -1.45781 -7.42791e-10 -9.68866e-10 -7.34171e-10 -1.28887e-09 -1.66353e-09 -1.26001e-09 -7.42797e-10 -9.68866e-10 -7.34162e-10 -7.73091 5.47488 -0.417314 -7.42789e-10 -9.68865e-10 -7.34164e-10 -2.90554 0.965183 -0.102902 -7.42798e-10 -9.68865e-10 -7.34172e-10 -10.2786 0.731801 -0.0259123 -7.42784e-10 -9.68863e-10 -7.34176e-10 -2.22167 -0.733487 0.20892 -2.03217e-16 0.0 -3.88251e-19 -23.8147 -8.50004 -10.9044 0.177628 9.35038 1.56752 -8.30642 -24.3386 -23.8404 2.03217e-16 0.0 3.88251e-19 136.016 -29.3132 134.886 177.083 53.2697 -177.401 5.90592 16.3067 -40.5238
-83.0319 100.446 -6.9662 -18.89 11.5689 161.412 -1.1039 13.9526 6.20817 -5.70577 -7.68258 0.993756 4.34439 14.764 9.00994 26.9999 -25.1991 23.8935 -0.0 0.0 0.0 -0.0 0.0 0.0 -4.65653e-13 -1.46515e-13 3.04762e-13 -2.8339 -64.6963 46.889 -22.3626 -16.3111 44.7826 -0.80421 -24.5921 -3.68793 -3.72808e-10 -8.74512e-10 2.54732e-10 -6.53011e-10 -1.50998e-09 4.31732e-10 -3.72807e-10 -8.74511e-10 2.54719e-10 7.73091 5.47488 0.417314 -3.72808e-10 -8.74512e-10 2.54729e-10 2.90554 0.965183 0.102902 -3.72805e-10 -8.74511e-10 2.54726e-10 10.2786 0.731801 0.0259123 -3.72814e-10 -8.7451e-10 2.54737e-10 2.22167 -0.733487 -0.20892 -4.65752e-13 -1.46495e-13 3.04566e-13 -60.6526 -58.9741 -87.9788 26.6524 -25.2395 -59.6673 0.120147 9.83388 -1.39593 -1.52987e-10 -3.16173e-10 -1.53165e-09 -2.72626e-10 -5.32423e-10 -2.64e-09 -1.52993e-10 -3.16173e-10 -1.53164e-09 -7.73091 5.47488 -0.417314 -1.52985e-10 -3.16172e-10 -1.53164e-09 -2.90554 0.965183 -0.102902 -1.52993e-10 -3.16172e-10 -1.53165e-09 -10.2786 0.731801 -0.0259123 -1.5298e-10 -3.16169e-10 -1.53166e-09 -2.22167 -0.733487 0.20892 -2.03217e-16 0.0 -3.88251e-19 -22.6574 -6.80179 -11.0096 0.165651 8.07368 1.41849 -7.76033 -24.2443 -21.5663 2.03217e-16 0.0 3.88251e-19 137.75 -29.6059 136.85 177.105 53.8047 -177.63 -0.0387775 9.37125 -35.2089
